<mxfile host="65bd71144e">
    <diagram id="a4oOFOTU80KLluKjBM73" name="Page-1">
        <mxGraphModel dx="985" dy="859" grid="1" gridSize="10" guides="1" tooltips="1" connect="1" arrows="1" fold="1" page="1" pageScale="1" pageWidth="1100" pageHeight="850" background="#ffffff" math="0" shadow="0">
            <root>
                <mxCell id="0"/>
                <mxCell id="1" parent="0"/>
                <mxCell id="51" style="edgeStyle=orthogonalEdgeStyle;rounded=0;orthogonalLoop=1;jettySize=auto;html=1;exitX=0.997;exitY=0.108;exitDx=0;exitDy=0;entryX=-0.002;entryY=0.086;entryDx=0;entryDy=0;fontFamily=Times New Roman;fontSize=17;endArrow=ERzeroToMany;endFill=1;startArrow=ERmandOne;startFill=0;exitPerimeter=0;entryPerimeter=0;targetPerimeterSpacing=0;endSize=9;startSize=9;labelBackgroundColor=#FFFFFF;fontColor=#000000;strokeColor=#000000;" edge="1" parent="1" source="2" target="23">
                    <mxGeometry relative="1" as="geometry"/>
                </mxCell>
                <mxCell id="52" style="edgeStyle=orthogonalEdgeStyle;rounded=0;orthogonalLoop=1;jettySize=auto;html=1;exitX=0.5;exitY=0;exitDx=0;exitDy=0;entryX=0.504;entryY=1.008;entryDx=0;entryDy=0;entryPerimeter=0;fontFamily=Times New Roman;fontSize=17;startArrow=ERzeroToOne;startFill=1;endArrow=ERzeroToMany;endFill=1;startSize=9;endSize=9;targetPerimeterSpacing=0;labelBackgroundColor=#FFFFFF;fontColor=#000000;strokeColor=#000000;" edge="1" parent="1" source="2" target="11">
                    <mxGeometry relative="1" as="geometry"/>
                </mxCell>
                <mxCell id="53" style="edgeStyle=orthogonalEdgeStyle;rounded=0;orthogonalLoop=1;jettySize=auto;html=1;exitX=-0.003;exitY=0.146;exitDx=0;exitDy=0;entryX=0.997;entryY=0.085;entryDx=0;entryDy=0;entryPerimeter=0;fontFamily=Times New Roman;fontSize=17;startArrow=ERmandOne;startFill=0;endArrow=ERzeroToMany;endFill=1;startSize=9;endSize=9;targetPerimeterSpacing=0;exitPerimeter=0;labelBackgroundColor=#FFFFFF;fontColor=#000000;strokeColor=#000000;" edge="1" parent="1" source="2" target="12">
                    <mxGeometry relative="1" as="geometry"/>
                </mxCell>
                <mxCell id="56" style="edgeStyle=orthogonalEdgeStyle;rounded=0;orthogonalLoop=1;jettySize=auto;html=1;exitX=0.75;exitY=0;exitDx=0;exitDy=0;entryX=0.524;entryY=1;entryDx=0;entryDy=0;entryPerimeter=0;fontFamily=Times New Roman;fontSize=17;startArrow=ERzeroToOne;startFill=1;endArrow=ERzeroToMany;endFill=1;startSize=9;endSize=9;targetPerimeterSpacing=0;labelBackgroundColor=#FFFFFF;fontColor=#000000;strokeColor=#000000;" edge="1" parent="1" source="2" target="21">
                    <mxGeometry relative="1" as="geometry"/>
                </mxCell>
                <mxCell id="2" value="Users" style="swimlane;fontStyle=0;childLayout=stackLayout;horizontal=1;startSize=26;fillColor=none;horizontalStack=0;resizeParent=1;resizeParentMax=0;resizeLast=0;collapsible=1;marginBottom=0;fontFamily=Times New Roman;fontSize=18;labelBackgroundColor=#FFFFFF;fontColor=#000000;strokeColor=#000000;" vertex="1" parent="1">
                    <mxGeometry x="450" y="586" width="140" height="104" as="geometry"/>
                </mxCell>
                <mxCell id="3" value="id                     (PK)" style="text;fillColor=none;align=left;verticalAlign=top;spacingLeft=4;spacingRight=4;overflow=hidden;rotatable=0;points=[[0,0.5],[1,0.5]];portConstraint=eastwest;fontSize=16;fontFamily=Times New Roman;labelBackgroundColor=#FFFFFF;fontColor=#000000;strokeColor=#000000;" vertex="1" parent="2">
                    <mxGeometry y="26" width="140" height="26" as="geometry"/>
                </mxCell>
                <mxCell id="4" value="username" style="text;fillColor=none;align=left;verticalAlign=top;spacingLeft=4;spacingRight=4;overflow=hidden;rotatable=0;points=[[0,0.5],[1,0.5]];portConstraint=eastwest;fontFamily=Times New Roman;fontSize=16;labelBackgroundColor=#FFFFFF;fontColor=#000000;strokeColor=#000000;" vertex="1" parent="2">
                    <mxGeometry y="52" width="140" height="26" as="geometry"/>
                </mxCell>
                <mxCell id="5" value="created_at" style="text;fillColor=none;align=left;verticalAlign=top;spacingLeft=4;spacingRight=4;overflow=hidden;rotatable=0;points=[[0,0.5],[1,0.5]];portConstraint=eastwest;fontSize=17;fontFamily=Times New Roman;labelBackgroundColor=#FFFFFF;fontColor=#000000;strokeColor=#000000;" vertex="1" parent="2">
                    <mxGeometry y="78" width="140" height="26" as="geometry"/>
                </mxCell>
                <mxCell id="6" value="Photos" style="swimlane;fontStyle=0;childLayout=stackLayout;horizontal=1;startSize=26;fillColor=none;horizontalStack=0;resizeParent=1;resizeParentMax=0;resizeLast=0;collapsible=1;marginBottom=0;fontFamily=Times New Roman;fontSize=18;labelBackgroundColor=#FFFFFF;fontColor=#000000;strokeColor=#000000;" vertex="1" parent="1">
                    <mxGeometry x="445" y="348" width="150" height="130" as="geometry"/>
                </mxCell>
                <mxCell id="7" value="id                     (PK)" style="text;fillColor=none;align=left;verticalAlign=top;spacingLeft=4;spacingRight=4;overflow=hidden;rotatable=0;points=[[0,0.5],[1,0.5]];portConstraint=eastwest;fontSize=16;fontFamily=Times New Roman;labelBackgroundColor=#FFFFFF;fontColor=#000000;strokeColor=#000000;" vertex="1" parent="6">
                    <mxGeometry y="26" width="150" height="26" as="geometry"/>
                </mxCell>
                <mxCell id="8" value="image_url" style="text;fillColor=none;align=left;verticalAlign=top;spacingLeft=4;spacingRight=4;overflow=hidden;rotatable=0;points=[[0,0.5],[1,0.5]];portConstraint=eastwest;fontFamily=Times New Roman;fontSize=16;labelBackgroundColor=#FFFFFF;fontColor=#000000;strokeColor=#000000;" vertex="1" parent="6">
                    <mxGeometry y="52" width="150" height="26" as="geometry"/>
                </mxCell>
                <mxCell id="9" value="user_id           (FK)" style="text;fillColor=none;align=left;verticalAlign=top;spacingLeft=4;spacingRight=4;overflow=hidden;rotatable=0;points=[[0,0.5],[1,0.5]];portConstraint=eastwest;fontSize=17;fontFamily=Times New Roman;labelBackgroundColor=#FFFFFF;fontColor=#000000;strokeColor=#000000;" vertex="1" parent="6">
                    <mxGeometry y="78" width="150" height="26" as="geometry"/>
                </mxCell>
                <mxCell id="11" value="created_at" style="text;fillColor=none;align=left;verticalAlign=top;spacingLeft=4;spacingRight=4;overflow=hidden;rotatable=0;points=[[0,0.5],[1,0.5]];portConstraint=eastwest;fontFamily=Times New Roman;fontSize=16;labelBackgroundColor=#FFFFFF;fontColor=#000000;strokeColor=#000000;" vertex="1" parent="6">
                    <mxGeometry y="104" width="150" height="26" as="geometry"/>
                </mxCell>
                <mxCell id="12" value="Comments" style="swimlane;fontStyle=0;childLayout=stackLayout;horizontal=1;startSize=26;fillColor=none;horizontalStack=0;resizeParent=1;resizeParentMax=0;resizeLast=0;collapsible=1;marginBottom=0;fontFamily=Times New Roman;fontSize=18;labelBackgroundColor=#FFFFFF;fontColor=#000000;strokeColor=#000000;" vertex="1" parent="1">
                    <mxGeometry x="195" y="586" width="140" height="156" as="geometry"/>
                </mxCell>
                <mxCell id="13" value="id                     (PK)" style="text;fillColor=none;align=left;verticalAlign=top;spacingLeft=4;spacingRight=4;overflow=hidden;rotatable=0;points=[[0,0.5],[1,0.5]];portConstraint=eastwest;fontSize=16;fontFamily=Times New Roman;labelBackgroundColor=#FFFFFF;fontColor=#000000;strokeColor=#000000;" vertex="1" parent="12">
                    <mxGeometry y="26" width="140" height="26" as="geometry"/>
                </mxCell>
                <mxCell id="14" value="comment_text" style="text;fillColor=none;align=left;verticalAlign=top;spacingLeft=4;spacingRight=4;overflow=hidden;rotatable=0;points=[[0,0.5],[1,0.5]];portConstraint=eastwest;fontFamily=Times New Roman;fontSize=16;labelBackgroundColor=#FFFFFF;fontColor=#000000;strokeColor=#000000;" vertex="1" parent="12">
                    <mxGeometry y="52" width="140" height="26" as="geometry"/>
                </mxCell>
                <mxCell id="15" value="photo_id        (FK)" style="text;fillColor=none;align=left;verticalAlign=top;spacingLeft=4;spacingRight=4;overflow=hidden;rotatable=0;points=[[0,0.5],[1,0.5]];portConstraint=eastwest;fontSize=17;fontFamily=Times New Roman;labelBackgroundColor=#FFFFFF;fontColor=#000000;strokeColor=#000000;" vertex="1" parent="12">
                    <mxGeometry y="78" width="140" height="26" as="geometry"/>
                </mxCell>
                <mxCell id="17" value="user_id          (FK)" style="text;fillColor=none;align=left;verticalAlign=top;spacingLeft=4;spacingRight=4;overflow=hidden;rotatable=0;points=[[0,0.5],[1,0.5]];portConstraint=eastwest;fontSize=17;fontFamily=Times New Roman;labelBackgroundColor=#FFFFFF;fontColor=#000000;strokeColor=#000000;" vertex="1" parent="12">
                    <mxGeometry y="104" width="140" height="26" as="geometry"/>
                </mxCell>
                <mxCell id="16" value="created_at" style="text;fillColor=none;align=left;verticalAlign=top;spacingLeft=4;spacingRight=4;overflow=hidden;rotatable=0;points=[[0,0.5],[1,0.5]];portConstraint=eastwest;fontFamily=Times New Roman;fontSize=16;labelBackgroundColor=#FFFFFF;fontColor=#000000;strokeColor=#000000;" vertex="1" parent="12">
                    <mxGeometry y="130" width="140" height="26" as="geometry"/>
                </mxCell>
                <mxCell id="18" value="Likes" style="swimlane;fontStyle=0;childLayout=stackLayout;horizontal=1;startSize=26;fillColor=none;horizontalStack=0;resizeParent=1;resizeParentMax=0;resizeLast=0;collapsible=1;marginBottom=0;fontFamily=Times New Roman;fontSize=18;labelBackgroundColor=#FFFFFF;fontColor=#000000;strokeColor=#000000;" vertex="1" parent="1">
                    <mxGeometry x="775" y="348" width="210" height="130" as="geometry"/>
                </mxCell>
                <mxCell id="22" value="(user_id, photo_id)         (PK)" style="text;fillColor=none;align=left;verticalAlign=top;spacingLeft=4;spacingRight=4;overflow=hidden;rotatable=0;points=[[0,0.5],[1,0.5]];portConstraint=eastwest;fontSize=17;fontFamily=Times New Roman;labelBackgroundColor=#FFFFFF;fontColor=#000000;strokeColor=#000000;" vertex="1" parent="18">
                    <mxGeometry y="26" width="210" height="26" as="geometry"/>
                </mxCell>
                <mxCell id="19" value="user_id                              (FK)" style="text;fillColor=none;align=left;verticalAlign=top;spacingLeft=4;spacingRight=4;overflow=hidden;rotatable=0;points=[[0,0.5],[1,0.5]];portConstraint=eastwest;fontSize=16;fontFamily=Times New Roman;labelBackgroundColor=#FFFFFF;fontColor=#000000;strokeColor=#000000;" vertex="1" parent="18">
                    <mxGeometry y="52" width="210" height="26" as="geometry"/>
                </mxCell>
                <mxCell id="20" value="photo_id                            (FK)" style="text;fillColor=none;align=left;verticalAlign=top;spacingLeft=4;spacingRight=4;overflow=hidden;rotatable=0;points=[[0,0.5],[1,0.5]];portConstraint=eastwest;fontFamily=Times New Roman;fontSize=16;labelBackgroundColor=#FFFFFF;fontColor=#000000;strokeColor=#000000;" vertex="1" parent="18">
                    <mxGeometry y="78" width="210" height="26" as="geometry"/>
                </mxCell>
                <mxCell id="21" value="created_at" style="text;fillColor=none;align=left;verticalAlign=top;spacingLeft=4;spacingRight=4;overflow=hidden;rotatable=0;points=[[0,0.5],[1,0.5]];portConstraint=eastwest;fontSize=17;fontFamily=Times New Roman;labelBackgroundColor=#FFFFFF;fontColor=#000000;strokeColor=#000000;" vertex="1" parent="18">
                    <mxGeometry y="104" width="210" height="26" as="geometry"/>
                </mxCell>
                <mxCell id="23" value="Follows" style="swimlane;fontStyle=0;childLayout=stackLayout;horizontal=1;startSize=26;fillColor=none;horizontalStack=0;resizeParent=1;resizeParentMax=0;resizeLast=0;collapsible=1;marginBottom=0;fontFamily=Times New Roman;fontSize=18;labelBackgroundColor=#FFFFFF;fontColor=#000000;strokeColor=#000000;" vertex="1" parent="1">
                    <mxGeometry x="695" y="586" width="260" height="130" as="geometry"/>
                </mxCell>
                <mxCell id="27" value="(follower_id, followee_id)         (PK)" style="text;fillColor=none;align=left;verticalAlign=top;spacingLeft=4;spacingRight=4;overflow=hidden;rotatable=0;points=[[0,0.5],[1,0.5]];portConstraint=eastwest;fontSize=17;fontFamily=Times New Roman;labelBackgroundColor=#FFFFFF;fontColor=#000000;strokeColor=#000000;" vertex="1" parent="23">
                    <mxGeometry y="26" width="260" height="26" as="geometry"/>
                </mxCell>
                <mxCell id="24" value="follower_id                                    (FK)" style="text;fillColor=none;align=left;verticalAlign=top;spacingLeft=4;spacingRight=4;overflow=hidden;rotatable=0;points=[[0,0.5],[1,0.5]];portConstraint=eastwest;fontSize=16;fontFamily=Times New Roman;labelBackgroundColor=#FFFFFF;fontColor=#000000;strokeColor=#000000;" vertex="1" parent="23">
                    <mxGeometry y="52" width="260" height="26" as="geometry"/>
                </mxCell>
                <mxCell id="25" value="followee_id                                    (FK)" style="text;fillColor=none;align=left;verticalAlign=top;spacingLeft=4;spacingRight=4;overflow=hidden;rotatable=0;points=[[0,0.5],[1,0.5]];portConstraint=eastwest;fontFamily=Times New Roman;fontSize=16;labelBackgroundColor=#FFFFFF;fontColor=#000000;strokeColor=#000000;" vertex="1" parent="23">
                    <mxGeometry y="78" width="260" height="26" as="geometry"/>
                </mxCell>
                <mxCell id="26" value="created_at" style="text;fillColor=none;align=left;verticalAlign=top;spacingLeft=4;spacingRight=4;overflow=hidden;rotatable=0;points=[[0,0.5],[1,0.5]];portConstraint=eastwest;fontSize=17;fontFamily=Times New Roman;labelBackgroundColor=#FFFFFF;fontColor=#000000;strokeColor=#000000;" vertex="1" parent="23">
                    <mxGeometry y="104" width="260" height="26" as="geometry"/>
                </mxCell>
                <mxCell id="31" value="Tags" style="swimlane;fontStyle=0;childLayout=stackLayout;horizontal=1;startSize=26;fillColor=none;horizontalStack=0;resizeParent=1;resizeParentMax=0;resizeLast=0;collapsible=1;marginBottom=0;fontFamily=Times New Roman;fontSize=18;labelBackgroundColor=#FFFFFF;fontColor=#000000;strokeColor=#000000;" vertex="1" parent="1">
                    <mxGeometry x="115" y="160" width="140" height="104" as="geometry"/>
                </mxCell>
                <mxCell id="32" value="id                     (PK)" style="text;fillColor=none;align=left;verticalAlign=top;spacingLeft=4;spacingRight=4;overflow=hidden;rotatable=0;points=[[0,0.5],[1,0.5]];portConstraint=eastwest;fontSize=16;fontFamily=Times New Roman;labelBackgroundColor=#FFFFFF;fontColor=#000000;strokeColor=#000000;" vertex="1" parent="31">
                    <mxGeometry y="26" width="140" height="26" as="geometry"/>
                </mxCell>
                <mxCell id="33" value="tag_name" style="text;fillColor=none;align=left;verticalAlign=top;spacingLeft=4;spacingRight=4;overflow=hidden;rotatable=0;points=[[0,0.5],[1,0.5]];portConstraint=eastwest;fontFamily=Times New Roman;fontSize=16;labelBackgroundColor=#FFFFFF;fontColor=#000000;strokeColor=#000000;" vertex="1" parent="31">
                    <mxGeometry y="52" width="140" height="26" as="geometry"/>
                </mxCell>
                <mxCell id="34" value="created_at" style="text;fillColor=none;align=left;verticalAlign=top;spacingLeft=4;spacingRight=4;overflow=hidden;rotatable=0;points=[[0,0.5],[1,0.5]];portConstraint=eastwest;fontSize=17;fontFamily=Times New Roman;labelBackgroundColor=#FFFFFF;fontColor=#000000;strokeColor=#000000;" vertex="1" parent="31">
                    <mxGeometry y="78" width="140" height="26" as="geometry"/>
                </mxCell>
                <mxCell id="60" style="edgeStyle=orthogonalEdgeStyle;rounded=0;orthogonalLoop=1;jettySize=auto;html=1;exitX=0;exitY=0.25;exitDx=0;exitDy=0;entryX=1;entryY=0.25;entryDx=0;entryDy=0;fontFamily=Times New Roman;fontSize=17;startArrow=ERmandOne;startFill=0;endArrow=ERzeroToMany;endFill=1;startSize=9;endSize=9;targetPerimeterSpacing=0;labelBackgroundColor=#FFFFFF;fontColor=#000000;strokeColor=#000000;" edge="1" parent="1" source="35" target="31">
                    <mxGeometry relative="1" as="geometry"/>
                </mxCell>
                <mxCell id="35" value="photo_tags" style="swimlane;fontStyle=0;childLayout=stackLayout;horizontal=1;startSize=26;horizontalStack=0;resizeParent=1;resizeParentMax=0;resizeLast=0;collapsible=1;marginBottom=0;fontFamily=Times New Roman;fontSize=18;labelBackgroundColor=#FFFFFF;fontColor=#333333;strokeColor=#666666;fillColor=#f5f5f5;" vertex="1" parent="1">
                    <mxGeometry x="425" y="160" width="210" height="104" as="geometry"/>
                </mxCell>
                <mxCell id="39" value="(tag_id, photo_id)          (PK)" style="text;fillColor=none;align=left;verticalAlign=top;spacingLeft=4;spacingRight=4;overflow=hidden;rotatable=0;points=[[0,0.5],[1,0.5]];portConstraint=eastwest;fontSize=17;fontFamily=Times New Roman;labelBackgroundColor=#FFFFFF;fontColor=#000000;strokeColor=#000000;" vertex="1" parent="35">
                    <mxGeometry y="26" width="210" height="26" as="geometry"/>
                </mxCell>
                <mxCell id="36" value="photo_id                            (FK)" style="text;fillColor=none;align=left;verticalAlign=top;spacingLeft=4;spacingRight=4;overflow=hidden;rotatable=0;points=[[0,0.5],[1,0.5]];portConstraint=eastwest;fontSize=16;fontFamily=Times New Roman;labelBackgroundColor=#FFFFFF;fontColor=#000000;strokeColor=#000000;" vertex="1" parent="35">
                    <mxGeometry y="52" width="210" height="26" as="geometry"/>
                </mxCell>
                <mxCell id="37" value="tag__id                              (FK)" style="text;fillColor=none;align=left;verticalAlign=top;spacingLeft=4;spacingRight=4;overflow=hidden;rotatable=0;points=[[0,0.5],[1,0.5]];portConstraint=eastwest;fontFamily=Times New Roman;fontSize=16;labelBackgroundColor=#FFFFFF;fontColor=#000000;strokeColor=#000000;" vertex="1" parent="35">
                    <mxGeometry y="78" width="210" height="26" as="geometry"/>
                </mxCell>
                <mxCell id="55" style="edgeStyle=orthogonalEdgeStyle;rounded=0;orthogonalLoop=1;jettySize=auto;html=1;exitX=0;exitY=0.5;exitDx=0;exitDy=0;fontFamily=Times New Roman;fontSize=17;startArrow=ERmandOne;startFill=0;endArrow=ERzeroToMany;endFill=1;startSize=9;endSize=9;targetPerimeterSpacing=0;labelBackgroundColor=#FFFFFF;fontColor=#000000;strokeColor=#000000;" edge="1" parent="1" source="7" target="12">
                    <mxGeometry relative="1" as="geometry"/>
                </mxCell>
                <mxCell id="57" style="edgeStyle=orthogonalEdgeStyle;rounded=0;orthogonalLoop=1;jettySize=auto;html=1;exitX=1;exitY=0.5;exitDx=0;exitDy=0;entryX=0;entryY=0.5;entryDx=0;entryDy=0;fontFamily=Times New Roman;fontSize=17;startArrow=ERzeroToOne;startFill=1;endArrow=ERzeroToMany;endFill=1;startSize=9;endSize=9;targetPerimeterSpacing=0;labelBackgroundColor=#FFFFFF;fontColor=#000000;strokeColor=#000000;" edge="1" parent="1" source="7" target="22">
                    <mxGeometry relative="1" as="geometry"/>
                </mxCell>
                <mxCell id="59" style="edgeStyle=orthogonalEdgeStyle;rounded=0;orthogonalLoop=1;jettySize=auto;html=1;exitX=0.443;exitY=0.962;exitDx=0;exitDy=0;entryX=0.5;entryY=0;entryDx=0;entryDy=0;fontFamily=Times New Roman;fontSize=17;startArrow=ERmandOne;startFill=0;endArrow=ERzeroToMany;endFill=1;startSize=9;endSize=9;targetPerimeterSpacing=0;exitPerimeter=0;labelBackgroundColor=#FFFFFF;fontColor=#000000;strokeColor=#000000;" edge="1" parent="1" source="37" target="6">
                    <mxGeometry relative="1" as="geometry">
                        <Array as="points">
                            <mxPoint x="518" y="333"/>
                        </Array>
                    </mxGeometry>
                </mxCell>
                <mxCell id="61" value="&lt;h1&gt;Instagram Clone Database Architecture&lt;/h1&gt;" style="text;html=1;strokeColor=none;fillColor=none;spacing=5;spacingTop=-20;whiteSpace=wrap;overflow=hidden;rounded=0;fontFamily=Times New Roman;fontSize=17;labelBackgroundColor=#FFFFFF;fontColor=#000000;" vertex="1" parent="1">
                    <mxGeometry x="250" y="10" width="600" height="120" as="geometry"/>
                </mxCell>
            </root>
        </mxGraphModel>
    </diagram>
</mxfile>